<svg width="24" height="19" viewBox="0 0 24 19" fill="none" xmlns="http://www.w3.org/2000/svg">
<path d="M12.1651 12.6472C14.4816 12.6472 16.3594 11.1572 16.3594 9.31921C16.3594 7.48121 14.4816 5.99121 12.1651 5.99121C9.84863 5.99121 7.97076 7.48121 7.97076 9.31921C7.97076 11.1572 9.84863 12.6472 12.1651 12.6472Z" stroke="black" stroke-width="1.5" stroke-linecap="round" stroke-linejoin="round"/>
<path d="M16.3594 5.99148V10.1515C16.3594 10.8135 16.6909 11.4483 17.2808 11.9164C17.8708 12.3845 18.6709 12.6475 19.5052 12.6475C20.3395 12.6475 21.1396 12.3845 21.7296 11.9164C22.3195 11.4483 22.6509 10.8135 22.6509 10.1515V9.31948C22.6508 7.44168 21.8501 5.61914 20.3789 4.14821C18.9078 2.67728 16.8529 1.64447 14.5482 1.21772C12.2435 0.790959 9.82459 0.995358 7.68486 1.79768C5.54514 2.6 3.8104 3.95305 2.76271 5.63682C1.71503 7.32059 1.41602 9.23606 1.91431 11.0718C2.4126 12.9075 3.67888 14.5554 5.50725 15.7477C7.33562 16.94 9.61854 17.6065 11.9848 17.6388C14.3511 17.6711 16.6615 17.0673 18.5405 15.9256" stroke="black" stroke-width="1.5" stroke-linecap="round" stroke-linejoin="round"/>
</svg>
