<svg width="23" height="15" viewBox="0 0 23 15" fill="none" xmlns="http://www.w3.org/2000/svg">
<path d="M22.176 10.733V12.69C22.1772 12.8717 22.1172 13.0515 21.9998 13.218C21.8823 13.3845 21.7101 13.5339 21.4942 13.6567C21.2782 13.7795 21.0232 13.873 20.7456 13.9312C20.468 13.9894 20.1738 14.0111 19.8819 13.9947C16.6436 13.7766 13.533 13.0907 10.8 11.992C8.2573 10.9905 6.10154 9.65414 4.48581 8.07797C2.7073 6.37614 1.60049 4.43855 1.25506 2.42217C1.22876 2.24177 1.26335 2.05996 1.35662 1.88831C1.44988 1.71665 1.59979 1.55892 1.79678 1.42514C1.99378 1.29137 2.23355 1.18449 2.50084 1.1113C2.76812 1.03812 3.05707 1.00023 3.34926 1.00006H6.50635C7.01707 0.996947 7.51219 1.10906 7.89943 1.31549C8.28666 1.52193 8.5396 1.80861 8.61107 2.12209C8.74433 2.74838 8.99145 3.36332 9.34773 3.95517C9.48932 4.18866 9.51996 4.44241 9.43603 4.68637C9.3521 4.93032 9.15711 5.15425 8.87416 5.33161L7.53767 6.16008C9.03576 7.79325 11.2172 9.14549 13.8518 10.0741L15.1883 9.24566C15.4745 9.07027 15.8357 8.9494 16.2293 8.89737C16.6228 8.84534 17.0322 8.86434 17.4088 8.95211C18.3636 9.17296 19.3556 9.32614 20.366 9.40874C20.8772 9.45345 21.344 9.61306 21.6778 9.85723C22.0115 10.1014 22.1888 10.4131 22.176 10.733Z" stroke="black" stroke-width="1.5" stroke-linecap="round" stroke-linejoin="round"/>
</svg>
